<svg width="265" height="60" viewBox="0 0 265 60" fill="none" xmlns="http://www.w3.org/2000/svg">
<path d="M97.968 48C97.744 48 97.568 47.936 97.44 47.808C97.312 47.68 97.248 47.504 97.248 47.28V15.12C97.248 14.896 97.312 14.72 97.44 14.592C97.568 14.464 97.744 14.4 97.968 14.4H107.424C109.536 14.4 111.392 14.8 112.992 15.6C114.624 16.4 115.888 17.536 116.784 19.008C117.68 20.448 118.128 22.112 118.128 24V38.4C118.128 40.288 117.68 41.968 116.784 43.44C115.888 44.88 114.624 46 112.992 46.8C111.392 47.6 109.536 48 107.424 48H97.968ZM106.272 39.984C106.272 40.176 106.368 40.272 106.56 40.272L107.232 40.224C107.744 40.192 108.176 39.952 108.528 39.504C108.88 39.056 109.072 38.48 109.104 37.776V24.576C109.104 23.84 108.928 23.248 108.576 22.8C108.224 22.352 107.76 22.128 107.184 22.128H106.56C106.368 22.128 106.272 22.224 106.272 22.416V39.984ZM134.681 48C134.201 48 133.945 47.776 133.913 47.328L133.385 43.728C133.385 43.664 133.353 43.6 133.289 43.536C133.225 43.472 133.145 43.44 133.049 43.44H128.825C128.729 43.44 128.649 43.472 128.585 43.536C128.521 43.6 128.489 43.664 128.489 43.728L128.009 47.328C127.977 47.776 127.721 48 127.241 48H119.705C119.193 48 118.985 47.744 119.081 47.232L125.897 15.024C125.993 14.608 126.265 14.4 126.713 14.4H135.449C135.897 14.4 136.169 14.608 136.265 15.024L143.081 47.232V47.424C143.081 47.808 142.857 48 142.409 48H134.681ZM129.545 36.24C129.545 36.432 129.625 36.528 129.785 36.528H132.041C132.265 36.528 132.345 36.432 132.281 36.24L130.985 27.6C130.953 27.472 130.905 27.408 130.841 27.408C130.777 27.408 130.729 27.472 130.697 27.6L129.545 36.24ZM148.79 47.904C148.566 47.904 148.39 47.84 148.262 47.712C148.134 47.584 148.07 47.408 148.07 47.184V36.144C148.07 35.952 148.054 35.824 148.022 35.76L141.302 15.216C141.27 15.152 141.254 15.056 141.254 14.928C141.254 14.576 141.462 14.4 141.878 14.4H149.846C150.294 14.4 150.566 14.608 150.662 15.024L152.438 24.48C152.47 24.608 152.534 24.672 152.63 24.672C152.726 24.672 152.79 24.608 152.822 24.48L154.598 15.024C154.694 14.608 154.966 14.4 155.414 14.4H163.382C163.638 14.4 163.814 14.48 163.91 14.64C164.006 14.768 164.022 14.96 163.958 15.216L157.142 35.76C157.11 35.824 157.094 35.952 157.094 36.144V47.184C157.094 47.408 157.03 47.584 156.902 47.712C156.774 47.84 156.598 47.904 156.374 47.904H148.79ZM181.901 14.928C182.093 14.576 182.381 14.4 182.765 14.4H190.253C190.477 14.4 190.653 14.464 190.781 14.592C190.909 14.72 190.973 14.896 190.973 15.12V47.28C190.973 47.504 190.909 47.68 190.781 47.808C190.653 47.936 190.477 48 190.253 48H182.669C182.445 48 182.269 47.936 182.141 47.808C182.013 47.68 181.949 47.504 181.949 47.28V27.744C181.949 27.616 181.901 27.536 181.805 27.504C181.741 27.472 181.677 27.52 181.613 27.648L178.877 32.256L178.397 33.12H178.349L175.181 27.648C175.117 27.52 175.037 27.472 174.941 27.504C174.877 27.504 174.845 27.584 174.845 27.744V47.28C174.845 47.504 174.781 47.68 174.653 47.808C174.525 47.936 174.349 48 174.125 48H166.541C166.317 48 166.141 47.936 166.013 47.808C165.885 47.68 165.821 47.504 165.821 47.28V15.12C165.821 14.896 165.885 14.72 166.013 14.592C166.141 14.464 166.317 14.4 166.541 14.4H174.029C174.445 14.4 174.733 14.576 174.893 14.928L178.253 21.072C178.317 21.168 178.381 21.232 178.445 21.264C178.541 21.264 178.605 21.2 178.637 21.072L181.901 14.928ZM203.616 48.384C200.384 48.384 197.792 47.456 195.84 45.6C193.92 43.744 192.96 41.248 192.96 38.112V24.288C192.96 21.152 193.92 18.656 195.84 16.8C197.792 14.944 200.384 14.016 203.616 14.016C206.848 14.016 209.424 14.944 211.344 16.8C213.296 18.656 214.272 21.152 214.272 24.288V38.112C214.272 41.248 213.296 43.744 211.344 45.6C209.424 47.456 206.848 48.384 203.616 48.384ZM203.616 40.656C204.128 40.656 204.528 40.464 204.816 40.08C205.104 39.696 205.248 39.168 205.248 38.496V23.904C205.248 23.232 205.104 22.704 204.816 22.32C204.528 21.936 204.128 21.744 203.616 21.744C203.104 21.744 202.704 21.936 202.416 22.32C202.128 22.704 201.984 23.232 201.984 23.904V38.496C201.984 39.168 202.128 39.696 202.416 40.08C202.704 40.464 203.104 40.656 203.616 40.656ZM230.418 15.12C230.418 14.896 230.482 14.72 230.61 14.592C230.738 14.464 230.914 14.4 231.138 14.4H238.626C238.85 14.4 239.026 14.464 239.154 14.592C239.282 14.72 239.346 14.896 239.346 15.12V47.28C239.346 47.504 239.282 47.68 239.154 47.808C239.026 47.936 238.85 48 238.626 48H230.082C229.666 48 229.41 47.792 229.314 47.376L225.666 32.832C225.634 32.736 225.57 32.688 225.474 32.688C225.378 32.688 225.33 32.752 225.33 32.88L225.426 47.28C225.426 47.504 225.362 47.68 225.234 47.808C225.106 47.936 224.93 48 224.706 48H217.218C216.994 48 216.818 47.936 216.69 47.808C216.562 47.68 216.498 47.504 216.498 47.28V15.12C216.498 14.896 216.562 14.72 216.69 14.592C216.818 14.464 216.994 14.4 217.218 14.4H225.666C226.082 14.4 226.338 14.608 226.434 15.024L230.13 29.616C230.162 29.744 230.226 29.808 230.322 29.808C230.418 29.808 230.466 29.744 230.466 29.616L230.418 15.12ZM262.977 14.4C263.201 14.4 263.377 14.464 263.505 14.592C263.633 14.72 263.697 14.896 263.697 15.12V21.408C263.697 21.632 263.633 21.808 263.505 21.936C263.377 22.064 263.201 22.128 262.977 22.128H257.313C257.121 22.128 257.025 22.224 257.025 22.416V47.28C257.025 47.504 256.961 47.68 256.833 47.808C256.705 47.936 256.529 48 256.305 48H248.721C248.497 48 248.321 47.936 248.193 47.808C248.065 47.68 248.001 47.504 248.001 47.28V22.416C248.001 22.224 247.905 22.128 247.713 22.128H242.193C241.969 22.128 241.793 22.064 241.665 21.936C241.537 21.808 241.473 21.632 241.473 21.408V15.12C241.473 14.896 241.537 14.72 241.665 14.592C241.793 14.464 241.969 14.4 242.193 14.4H262.977Z" fill="#F24E1E"/>
<path d="M79.8994 42L71 42L71 43.8994L65.8994 49L17 49C16.4477 49 16 48.5523 16 48L16 41C16 40.4477 16.4477 40 17 40L34 40L34 35L1 35C0.447717 35 1.75303e-06 34.5523 1.70474e-06 34L1.96701e-06 28C1.97514e-05 27.4477 0.447728 27 1 27L34 27L34 22L17 22C16.4477 22 16 21.5523 16 21L16 14C16 13.4477 16.4477 13 17 13L66.1006 13L71 17.8994L71 20L80.1006 20L83 22.8994L83 38.8994L79.8994 42ZM43 22L43 40L46 40L46 22L43 22ZM55 22L55 40L69 40L69 22L55 22Z" fill="#F24E1E"/>
</svg>
